<?xml version="1.0" encoding="utf-8"?>
<!-- Generator: Adobe Illustrator 22.1.0, SVG Export Plug-In . SVG Version: 6.00 Build 0)  -->
<svg version="1.1" id="Capa_1" xmlns="http://www.w3.org/2000/svg" xmlns:xlink="http://www.w3.org/1999/xlink" x="0px" y="0px"
	 viewBox="0 0 94 94" style="enable-background:new 0 0 94 94;" xml:space="preserve">
<style type="text/css">
	.st0{fill:#FF0000;}
</style>
<g>
	<path class="st0" d="M94,35.1c0,2.7-0.4,5.3-1.3,7.8c-4,18.1-38.5,39.9-40,40.9c-0.5,0.3-1,0.4-1.5,0.4c-0.5,0-1-0.1-1.5-0.4
		c-0.4-0.3-10.1-6.4-20-14.8c-1.2-1-1.3-2.8-0.3-3.9c1-1.2,2.8-1.3,4-0.3c7.4,6.3,14.8,11.4,17.9,13.4c10.4-6.8,33.3-24,36.1-36.6
		c0.7-2.2,1.1-4.3,1.1-6.3c0-7.2-3.9-13.8-10.2-17.3c-8.1-4.5-18.9-2.4-24.8,4.7c-1.1,1.3-3.2,1.3-4.3,0c-5.9-7.1-16.7-9.2-24.8-4.7
		C18,21.2,14.1,27.9,14.1,35.1c0,2.1,0.3,4.1,1,6.1c0.4,1.8,1.2,3.7,2.2,5.5h16.4l5.6-12.9c0.5-1.1,1.6-1.8,2.8-1.7
		c1.2,0.1,2.2,1,2.5,2.1l4.1,17.5L54,43c0.5-0.8,1.4-1.3,2.4-1.3h10.2c1.5,0,2.8,1.3,2.8,2.8c0,1.5-1.3,2.8-2.8,2.8H58l-8.1,13.2
		c-0.5,0.8-1.4,1.3-2.4,1.3c-0.2,0-0.3,0-0.4,0c-1.1-0.2-2-1-2.3-2.1L41,43.7l-3,6.9c-0.4,1-1.5,1.7-2.6,1.7H2.8
		C1.3,52.3,0,51,0,49.5c0-1.5,1.3-2.8,2.8-2.8H11c-0.6-1.4-1.1-2.7-1.3-4c-0.8-2.3-1.2-4.9-1.2-7.6c0-9.2,5-17.8,13.1-22.2
		c9.4-5.2,21.9-3.6,29.6,3.7c7.8-7.3,20.2-8.9,29.6-3.7C89,17.3,94,25.8,94,35.1z"/>
</g>
</svg>
